<svg width="24" height="24" viewBox="0 0 24 24" fill="none" xmlns="http://www.w3.org/2000/svg">
<path d="M11.2933 9.6219C10.9028 9.23138 10.9028 8.59821 11.2933 8.20769V8.20769C11.6838 7.81716 12.317 7.81716 12.7075 8.20769L17.9501 13.4503C18.3407 13.8409 18.3407 14.474 17.9501 14.8645V14.8645C17.5596 15.2551 16.9265 15.2551 16.5359 14.8645L11.2933 9.6219Z" fill="black"/>
<path d="M7.46516 14.8639C7.07464 15.2545 6.44147 15.2545 6.05095 14.8639V14.8639C5.66043 14.4734 5.66043 13.8402 6.05095 13.4497L11.2936 8.20708C11.6841 7.81656 12.3173 7.81656 12.7078 8.20708V8.20708C13.0983 8.59761 13.0983 9.23077 12.7078 9.6213L7.46516 14.8639Z" fill="black"/>
</svg>
