<svg width="24" height="24" viewBox="0 0 24 24" fill="none" xmlns="http://www.w3.org/2000/svg">
<path d="M12.7071 14.1923C13.0976 14.5828 13.0976 15.216 12.7071 15.6065V15.6065C12.3166 15.997 11.6834 15.997 11.2929 15.6065L6.05025 10.3639C5.65973 9.97336 5.65973 9.34019 6.05025 8.94967V8.94967C6.44078 8.55914 7.07394 8.55914 7.46447 8.94967L12.7071 14.1923Z" fill="black"/>
<path d="M16.5351 8.94929C16.9256 8.55877 17.5588 8.55877 17.9493 8.94929V8.94929C18.3398 9.33982 18.3398 9.97298 17.9493 10.3635L12.7067 15.6061C12.3161 15.9967 11.683 15.9967 11.2924 15.6061V15.6061C10.9019 15.2156 10.9019 14.5825 11.2924 14.1919L16.5351 8.94929Z" fill="black"/>
</svg>
