<svg width="24" height="24" viewBox="0 0 24 24" fill="none" xmlns="http://www.w3.org/2000/svg">
<path d="M5.09961 12C5.09961 11.5029 5.50294 11.0996 6 11.0996C6.49706 11.0996 6.90039 11.5029 6.90039 12C6.90039 14.8167 9.18335 17.0996 12 17.0996C14.8167 17.0996 17.0996 14.8167 17.0996 12C17.0996 9.27144 14.9573 7.04296 12.2627 6.90625L12 6.90039L11.9082 6.89551C11.4543 6.84953 11.0996 6.46607 11.0996 6C11.0996 5.50294 11.5029 5.09961 12 5.09961L12.3555 5.10938C16.001 5.29439 18.9004 8.30846 18.9004 12C18.9004 15.8108 15.8108 18.9004 12 18.9004C8.18923 18.9004 5.09961 15.8108 5.09961 12Z" fill="black"/>
</svg>
